Coordinates
version=1
nRows=34
nColumns=38
inDegrees=no

Units are S.I. units (second, meters, Newtons, ...)
If the header above contains a line with 'inDegrees', this indicates whether rotational values are in degrees (yes) or radians (no).

endheader
time	pelvis_tilt	pelvis_list	pelvis_rotation	pelvis_tx	pelvis_ty	pelvis_tz	hip_flexion_r	hip_adduction_r	hip_rotation_r	knee_angle_r	ankle_angle_r	subtalar_angle_r	mtp_angle_r	hip_flexion_l	hip_adduction_l	hip_rotation_l	knee_angle_l	ankle_angle_l	subtalar_angle_l	mtp_angle_l	lumbar_extension	lumbar_bending	lumbar_rotation	arm_flex_r	arm_add_r	arm_rot_r	elbow_flex_r	pro_sup_r	wrist_flex_r	wrist_dev_r	arm_flex_l	arm_add_l	arm_rot_l	elbow_flex_l	pro_sup_l	wrist_flex_l	wrist_dev_l
0.77	-0.0943147	1.27467	-1.50491	0.696139	1.28934	1.03837	0.238921	0.0680797	-0.0225932	1.53301	-0.0869194	0	0	-0.202343	-0.0578233	-0.368065	0.438982	-0.208558	0	0	-0.524913	0.175139	0.286196	-0.0759201	-0.589177	-0.141241	1.66478	0.530836	0	0	0.529015	-0.330179	0.437421	0.918049	0.724402	0	0
0.78	-0.0989563	1.276	-1.49665	0.697192	1.27965	1.03908	0.258927	0.0719617	-0.0283564	1.51182	-0.0854343	0	0	-0.214574	-0.0576211	-0.368217	0.431717	-0.206739	0	0	-0.522485	0.177239	0.282404	-0.0766019	-0.587036	-0.142111	1.66508	0.533367	0	0	0.528464	-0.331091	0.436801	0.919076	0.726054	0	0
0.79	-0.103395	1.27794	-1.4884	0.698184	1.26989	1.03962	0.277644	0.0754493	-0.0335203	1.48561	-0.0854528	0	0	-0.226238	-0.0572854	-0.367432	0.424015	-0.203917	0	0	-0.519052	0.179249	0.278281	-0.0774132	-0.580716	-0.145973	1.66474	0.552641	0	0	0.527741	-0.331849	0.435747	0.919507	0.729278	0	0
0.8	-0.108188	1.27918	-1.47994	0.699123	1.26011	1.04008	0.293463	0.0789155	-0.0378804	1.4544	-0.087685	0	0	-0.238382	-0.0574052	-0.367974	0.417222	-0.201312	0	0	-0.516207	0.181509	0.274394	-0.0781545	-0.579266	-0.146004	1.66517	0.548817	0	0	0.527608	-0.33303	0.436652	0.919543	0.727504	0	0
0.81	-0.112538	1.28049	-1.47247	0.699967	1.25031	1.04043	0.307095	0.0821601	-0.0408776	1.41843	-0.0902735	0	0	-0.25053	-0.0572724	-0.368617	0.410383	-0.199005	0	0	-0.51332	0.183348	0.271297	-0.0793616	-0.576997	-0.147016	1.66557	0.550265	0	0	0.527621	-0.333802	0.437329	0.918908	0.726138	0	0
0.82	-0.11606	1.28216	-1.46648	0.700716	1.24049	1.04064	0.318744	0.0850196	-0.0424797	1.37787	-0.0935556	0	0	-0.262305	-0.0568017	-0.369138	0.40349	-0.196803	0	0	-0.510129	0.184554	0.269061	-0.0810457	-0.575458	-0.148002	1.666	0.551622	0	0	0.527814	-0.334301	0.438115	0.918001	0.724795	0	0
0.83	-0.119157	1.2844	-1.46158	0.701376	1.23065	1.04065	0.328595	0.0875567	-0.0427306	1.33302	-0.097517	0	0	-0.273337	-0.0561592	-0.369856	0.396976	-0.194232	0	0	-0.506354	0.185409	0.267593	-0.0830509	-0.574342	-0.149005	1.66644	0.552108	0	0	0.528164	-0.333882	0.43897	0.916557	0.723899	0	0
0.84	-0.122141	1.28728	-1.45734	0.701973	1.22077	1.04047	0.336593	0.0898331	-0.0418655	1.28392	-0.101914	0	0	-0.28326	-0.0553939	-0.371249	0.391579	-0.190999	0	0	-0.501815	0.186183	0.26652	-0.0849188	-0.573086	-0.149772	1.66683	0.55135	0	0	0.528242	-0.333512	0.439885	0.914966	0.723047	0	0
0.85	-0.123991	1.2907	-1.45452	0.702507	1.21087	1.04008	0.342513	0.0913628	-0.0404137	1.23093	-0.105462	0	0	-0.292004	-0.0543291	-0.373326	0.387722	-0.187462	0	0	-0.496686	0.186522	0.265487	-0.0866171	-0.572425	-0.149768	1.66689	0.551313	0	0	0.528125	-0.333504	0.440846	0.913539	0.722262	0	0
0.86	-0.123897	1.29441	-1.45396	0.703004	1.20095	1.03947	0.346039	0.0915692	-0.0391162	1.17443	-0.108302	0	0	-0.300123	-0.052578	-0.375599	0.384922	-0.183677	0	0	-0.490934	0.186146	0.26395	-0.0873374	-0.572095	-0.148477	1.66593	0.551547	0	0	0.527512	-0.334168	0.441737	0.912631	0.721578	0	0
0.87	-0.121359	1.2985	-1.45601	0.703467	1.19097	1.03866	0.347731	0.0901761	-0.0383521	1.11552	-0.111104	0	0	-0.307533	-0.0499915	-0.377898	0.382934	-0.179965	0	0	-0.484916	0.185019	0.262636	-0.0883513	-0.571417	-0.147643	1.66505	0.5516	0	0	0.526814	-0.334877	0.442666	0.91225	0.720973	0	0
0.88	-0.117281	1.30315	-1.45959	0.703906	1.18093	1.03764	0.347845	0.0874872	-0.0388047	1.05388	-0.113643	0	0	-0.314138	-0.0469022	-0.380072	0.381488	-0.176492	0	0	-0.47832	0.183621	0.2615	-0.0898358	-0.570607	-0.147357	1.66421	0.553201	0	0	0.525933	-0.335275	0.443253	0.911867	0.720453	0	0
0.89	-0.112183	1.30694	-1.46382	0.704375	1.17088	1.03649	0.345075	0.0836274	-0.0419417	0.989595	-0.11709	0	0	-0.321721	-0.0437051	-0.381848	0.379764	-0.17197	0	0	-0.472825	0.182511	0.260492	-0.0916495	-0.573175	-0.145277	1.66453	0.539688	0	0	0.52544	-0.335802	0.444794	0.911951	0.718556	0	0
0.9	-0.105299	1.31157	-1.46968	0.704811	1.16071	1.03507	0.342013	0.0786815	-0.0477718	0.924465	-0.120037	0	0	-0.328244	-0.0403215	-0.383713	0.378806	-0.167112	0	0	-0.466472	0.180986	0.259835	-0.0946418	-0.573719	-0.145925	1.66506	0.537981	0	0	0.524953	-0.335942	0.446386	0.912042	0.718049	0	0
0.91	-0.0962726	1.31674	-1.4777	0.705211	1.15043	1.03339	0.338777	0.0729072	-0.056313	0.859353	-0.123776	0	0	-0.334263	-0.036684	-0.385522	0.378205	-0.161731	0	0	-0.459534	0.179038	0.259534	-0.0982861	-0.573952	-0.147342	1.66578	0.536825	0	0	0.524493	-0.335881	0.448327	0.912224	0.717019	0	0
0.92	-0.0849881	1.32245	-1.48808	0.705565	1.14005	1.03145	0.335544	0.0662564	-0.0676088	0.79496	-0.12908	0	0	-0.339848	-0.0328172	-0.386636	0.377602	-0.15635	0	0	-0.45191	0.176618	0.259548	-0.102386	-0.573622	-0.149521	1.66652	0.535773	0	0	0.52407	-0.335628	0.450601	0.912241	0.715744	0	0
0.93	-0.0718014	1.32931	-1.50087	0.705771	1.12952	1.02925	0.33351	0.0595129	-0.0806121	0.733206	-0.131324	0	0	-0.343863	-0.0288487	-0.387712	0.37818	-0.151775	0	0	-0.442635	0.173633	0.259542	-0.106015	-0.572754	-0.15111	1.66637	0.53678	0	0	0.522649	-0.335206	0.451281	0.912035	0.716833	0	0
0.94	-0.0577573	1.33522	-1.51473	0.705888	1.11892	1.027	0.329939	0.0532401	-0.0963875	0.673113	-0.138468	0	0	-0.348692	-0.0251034	-0.388176	0.379541	-0.14627	0	0	-0.434255	0.170691	0.260024	-0.109491	-0.571811	-0.152892	1.66619	0.535219	0	0	0.521829	-0.335019	0.453567	0.911515	0.714837	0	0
0.95	-0.0421387	1.34063	-1.53039	0.705925	1.10824	1.02474	0.325608	0.0470259	-0.113978	0.616617	-0.145559	0	0	-0.354219	-0.0212025	-0.387608	0.380838	-0.140962	0	0	-0.426384	0.167467	0.260959	-0.112929	-0.570854	-0.154856	1.66557	0.535186	0	0	0.521206	-0.334609	0.456101	0.910656	0.712645	0	0
0.96	-0.0277367	1.34564	-1.54508	0.705817	1.09742	1.02248	0.320498	0.0421308	-0.132535	0.564546	-0.149783	0	0	-0.360085	-0.0179293	-0.386914	0.382725	-0.13607	0	0	-0.418759	0.164725	0.262412	-0.116077	-0.569777	-0.156541	1.66438	0.53546	0	0	0.520818	-0.333452	0.458547	0.908319	0.713557	0	0
0.97	-0.0181175	1.34891	-1.55504	0.705587	1.0865	1.02038	0.312287	0.0396562	-0.151307	0.515155	-0.153462	0	0	-0.367622	-0.0161918	-0.386316	0.385396	-0.130635	0	0	-0.413231	0.163253	0.264853	-0.119555	-0.567474	-0.160044	1.66338	0.543149	0	0	0.520812	-0.331549	0.460698	0.905353	0.715563	0	0
0.98	-0.0127625	1.35083	-1.56123	0.705253	1.07551	1.01837	0.302801	0.0391788	-0.167931	0.473068	-0.152989	0	0	-0.376212	-0.0157186	-0.386915	0.389528	-0.12564	0	0	-0.409148	0.16293	0.266887	-0.120856	-0.569681	-0.158114	1.66159	0.534377	0	0	0.519729	-0.330113	0.461205	0.902874	0.716962	0	0
0.99	-0.0105111	1.35187	-1.56548	0.704707	1.06437	1.01651	0.293836	0.0402944	-0.180351	0.442636	-0.149544	0	0	-0.382721	-0.019247	-0.398441	0.403107	-0.122514	0	0	-0.406185	0.162883	0.270169	-0.121966	-0.569532	-0.158048	1.65914	0.539365	0	0	0.51856	-0.328667	0.462003	0.900228	0.716981	0	0
1	-0.0160389	1.34861	-1.56069	0.704357	1.05336	1.01506	0.279403	0.043402	-0.190618	0.417766	-0.150974	0	0	-0.395764	-0.0214761	-0.398896	0.409387	-0.118182	0	0	-0.408052	0.166065	0.26986	-0.117822	-0.574008	-0.150692	1.65613	0.532271	0	0	0.515265	-0.328302	0.458144	0.899313	0.717671	0	0
1.01	-0.0225274	1.34586	-1.555	0.703944	1.04221	1.01364	0.267563	0.0468042	-0.195724	0.40714	-0.151563	0	0	-0.407155	-0.0240619	-0.398388	0.418076	-0.115584	0	0	-0.409721	0.169473	0.27038	-0.115154	-0.576204	-0.146557	1.65377	0.531502	0	0	0.512558	-0.327836	0.456225	0.897996	0.717282	0	0
1.02	-0.0323903	1.34049	-1.54532	0.703535	1.031	1.01246	0.252483	0.051386	-0.197596	0.403588	-0.154413	0	0	-0.420061	-0.0283062	-0.398244	0.429703	-0.113109	0	0	-0.414616	0.174277	0.270253	-0.111814	-0.57897	-0.14202	1.65241	0.530555	0	0	0.510056	-0.328286	0.455445	0.897825	0.716525	0	0
1.03	-0.0413543	1.33481	-1.53627	0.703042	1.01965	1.0113	0.237031	0.056195	-0.196163	0.407993	-0.158016	0	0	-0.43191	-0.0329932	-0.397112	0.444345	-0.110823	0	0	-0.420049	0.17905	0.270341	-0.109611	-0.581299	-0.139	1.65233	0.530563	0	0	0.50797	-0.329172	0.455949	0.898026	0.715528	0	0
1.04	-0.0478771	1.32933	-1.52931	0.702442	1.00814	1.01007	0.221044	0.060817	-0.192695	0.417635	-0.162371	0	0	-0.441842	-0.0377421	-0.394391	0.462694	-0.108437	0	0	-0.425367	0.183455	0.270461	-0.108682	-0.582862	-0.13741	1.6536	0.530991	0	0	0.505915	-0.330324	0.456559	0.898622	0.714092	0	0
1.05	-0.0513551	1.32439	-1.525	0.701749	0.996499	1.00873	0.205557	0.0648094	-0.189985	0.429297	-0.168482	0	0	-0.449213	-0.0425265	-0.39001	0.485286	-0.106939	0	0	-0.430183	0.18729	0.270448	-0.108859	-0.583925	-0.136795	1.65608	0.531987	0	0	0.50395	-0.331743	0.457456	0.89967	0.712611	0	0
1.06	-0.0553967	1.31967	-1.51949	0.701024	0.98497	1.00746	0.192823	0.0674727	-0.192469	0.437413	-0.179207	0	0	-0.453624	-0.0485749	-0.383326	0.51337	-0.10606	0	0	-0.435339	0.191502	0.270267	-0.109182	-0.585186	-0.136584	1.65914	0.533929	0	0	0.502449	-0.333069	0.458462	0.900914	0.711112	0	0
1.07	-0.0649885	1.31536	-1.50865	0.700262	0.973736	1.0065	0.185337	0.0685834	-0.199911	0.438292	-0.195625	0	0	-0.454169	-0.0565848	-0.374142	0.547782	-0.105987	0	0	-0.441338	0.197325	0.271162	-0.109282	-0.586621	-0.137169	1.66221	0.53821	0	0	0.501248	-0.33327	0.45853	0.901656	0.709893	0	0
1.08	-0.0808281	1.31153	-1.49251	0.699397	0.962809	1.00601	0.181077	0.0713256	-0.208653	0.437958	-0.224757	0	0	-0.450158	-0.0671768	-0.364829	0.590254	-0.107833	0	0	-0.447575	0.205002	0.271378	-0.105261	-0.590413	-0.13247	1.66323	0.532207	0	0	0.498067	-0.333412	0.454509	0.902435	0.707817	0	0
1.09	-0.0987364	1.30987	-1.47598	0.698183	0.95208	1.00587	0.179683	0.0765399	-0.211579	0.446746	-0.23515	0	0	-0.439771	-0.0787929	-0.355282	0.640168	-0.112693	0	0	-0.452927	0.211995	0.274209	-0.102342	-0.590943	-0.131526	1.66415	0.533748	0	0	0.495962	-0.333573	0.452479	0.902566	0.705729	0	0
1.1	-0.11853	1.31092	-1.45954	0.696527	0.941517	1.00591	0.181876	0.0837975	-0.202559	0.46431	-0.245157	0	0	-0.421911	-0.0912252	-0.346923	0.698107	-0.120889	0	0	-0.455579	0.218085	0.276596	-0.0957866	-0.590735	-0.126536	1.66219	0.534011	0	0	0.492579	-0.334962	0.44896	0.902394	0.708961	0	0
